<?xml version="1.0" standalone="no"?>
<!DOCTYPE svg PUBLIC "-//W3C//DTD SVG 20010904//EN"
 "http://www.w3.org/TR/2001/REC-SVG-20010904/DTD/svg10.dtd">
<svg version="1.0" xmlns="http://www.w3.org/2000/svg"
 width="700.000000pt" height="700.000000pt" viewBox="0 0 700.000000 700.000000"
 preserveAspectRatio="xMidYMid meet">
<metadata>
Created by potrace 1.14, written by Peter Selinger 2001-2017
</metadata>
<g transform="translate(0.000000,700.000000) scale(0.100000,-0.100000)"
fill="#000000" stroke="none">
<path d="M2336 6389 c-49 -13 -94 -52 -111 -94 -13 -34 -15 -102 -15 -420 0
-351 2 -383 19 -421 17 -37 17 -42 3 -40 -9 2 -36 -1 -61 -6 -25 -5 -59 -11
-76 -14 -61 -10 -151 -36 -209 -60 -33 -13 -62 -24 -65 -24 -3 0 -7 16 -8 36
-1 19 -16 61 -34 92 -18 31 -43 77 -57 102 -14 25 -33 57 -43 72 -11 14 -19
29 -19 32 0 3 -22 43 -49 88 -207 351 -193 332 -241 356 -101 51 -213 -12
-226 -126 -7 -57 -6 -59 224 -456 148 -256 179 -300 220 -317 10 -3 -6 -22
-49 -56 -69 -55 -177 -165 -224 -226 l-29 -39 -30 36 c-19 22 -110 81 -241
156 -116 66 -217 124 -225 129 -8 6 -64 38 -124 72 -113 65 -148 73 -210 49
-83 -31 -123 -139 -81 -219 24 -46 60 -70 360 -241 17 -10 102 -59 190 -109
115 -67 169 -93 196 -94 21 -1 37 -4 35 -7 -1 -3 -7 -16 -13 -30 -34 -75 -78
-239 -89 -333 -4 -29 -8 -53 -9 -55 -2 -2 -17 4 -34 13 -28 14 -80 15 -435 13
-391 -3 -406 -4 -432 -24 -52 -38 -68 -70 -69 -133 0 -48 5 -63 29 -95 50 -66
51 -66 486 -66 336 0 395 2 421 16 17 8 32 14 34 12 2 -2 5 -25 8 -53 9 -85
26 -155 62 -261 19 -56 35 -105 35 -108 0 -3 -15 -6 -33 -6 -23 0 -105 -42
-302 -156 -149 -85 -295 -169 -325 -186 -66 -37 -97 -63 -117 -102 -36 -68 -1
-173 70 -209 55 -28 107 -24 175 14 237 135 610 354 626 367 10 10 26 35 36
57 18 41 17 40 331 254 l95 66 -43 81 c-60 114 -85 212 -89 359 -2 100 1 135
20 211 72 276 271 484 551 574 104 34 300 38 415 9 197 -50 362 -164 477 -330
l39 -57 203 114 202 113 27 -25 c32 -29 74 -42 123 -38 34 3 92 34 498 270 79
46 147 84 151 84 4 0 28 19 53 43 32 30 47 53 52 80 21 113 -66 209 -176 194
-25 -3 -112 -47 -242 -122 -111 -65 -218 -126 -237 -137 -148 -84 -221 -132
-244 -159 -15 -17 -28 -30 -30 -28 -65 90 -181 210 -261 270 -24 19 -44 36
-44 39 0 3 14 14 31 25 27 17 84 98 119 170 5 11 19 36 30 55 112 186 269 471
272 496 14 94 -75 188 -169 179 -77 -8 -106 -34 -184 -173 -34 -59 -65 -114
-71 -122 -22 -36 -218 -378 -233 -407 -9 -18 -16 -46 -16 -64 0 -26 -3 -30
-17 -24 -59 23 -185 64 -228 74 -57 13 -72 16 -137 25 l-48 7 17 32 c14 28 16
80 16 428 0 390 0 397 -22 432 -37 61 -111 93 -175 76z"/>
<path d="M4448 4625 c-2 -1 -40 -5 -85 -9 -45 -3 -88 -8 -95 -11 -7 -2 -26 -6
-43 -8 -16 -3 -66 -14 -111 -26 -369 -95 -713 -341 -926 -662 l-70 -106 -42 8
c-45 9 -336 5 -376 -5 -14 -3 -38 -9 -55 -11 -159 -28 -413 -140 -525 -232
-203 -165 -309 -290 -406 -483 -41 -82 -97 -235 -108 -294 -3 -16 -6 -30 -8
-31 -2 -1 -41 -5 -88 -8 -160 -12 -274 -43 -415 -112 -274 -136 -479 -388
-563 -694 -23 -85 -26 -115 -26 -256 -1 -161 9 -230 50 -353 23 -68 85 -189
134 -263 56 -84 197 -222 285 -280 137 -91 317 -158 470 -175 33 -4 1005 -7
2160 -7 2336 0 2187 -4 2402 68 479 160 818 557 908 1065 13 75 14 316 1 400
-67 426 -328 793 -702 987 -87 45 -94 50 -99 83 -4 30 -28 153 -40 215 -26
121 -141 373 -228 498 -306 438 -765 685 -1304 702 -51 2 -93 2 -95 0z m251
-551 c420 -74 752 -382 862 -800 22 -80 24 -110 24 -295 l-1 -206 91 -22 c296
-73 444 -164 577 -355 243 -350 163 -835 -182 -1093 -76 -57 -183 -109 -276
-135 l-79 -22 -2106 -1 -2106 -2 -75 22 c-290 83 -454 382 -369 671 54 183
235 342 423 370 124 19 188 6 446 -89 114 -42 202 -69 203 -63 2 21 -3 169 -6
186 -2 10 -7 87 -10 173 -6 128 -4 168 10 232 81 367 389 626 759 639 103 4
214 -19 376 -77 69 -25 134 -48 145 -51 17 -5 24 3 44 57 13 34 30 76 36 92 7
17 25 62 39 102 108 287 371 533 676 633 146 48 343 61 499 34z"/>
</g>
</svg>
